Coordinates
version=1
nRows=16
nColumns=22
inDegrees=yes

Units are S.I. units (second, meters, Newtons, ...)
If the header above contains a line with 'inDegrees', this indicates whether rotational values are in degrees (yes) or radians (no).

endheader
time	pelvis_tilt	pelvis_list	pelvis_rotation	pelvis_tx	pelvis_ty	pelvis_tz	hip_flexion_r	hip_adduction_r	hip_rotation_r	knee_angle_r	ankle_angle_r	subtalar_angle_r	hip_flexion_l	hip_adduction_l	hip_rotation_l	knee_angle_l	ankle_angle_l	subtalar_angle_l	lumbar_extension	lumbar_bending	lumbar_rotation
      0.01000000	      4.90501741	     -2.42649843	      4.18111711	     -1.37916237	      0.94983874	      0.11668357	     -3.99029228	      4.02194075	    -10.58911566	    -14.17848666	     13.51888926	     -1.25929322	     -1.24739241	     -4.87088303	    -11.25434063	    -19.59275639	     24.46916853	     -2.62465858	    -10.16221900	      4.16597658	     -8.76943400
      0.02000000	      4.90784430	     -2.38358289	      4.13249967	     -1.37811932	      0.94963619	      0.11724515	     -3.99660005	      4.01374508	    -10.49652059	    -14.30975646	     13.60511097	     -1.32519791	     -1.32274626	     -4.86071961	    -11.20798778	    -19.62261529	     24.62209710	     -2.59284589	    -10.19879645	      4.13729823	     -8.82399029
      0.03000000	      4.88974085	     -2.33685281	      4.06420773	     -1.37683851	      0.94936064	      0.11793785	     -3.98091757	      4.00421757	    -10.39764836	    -14.47179538	     13.81842653	     -1.65206275	     -1.38843023	     -4.85620660	    -11.18138722	    -19.66671098	     24.72174254	     -2.43877086	    -10.21042946	      4.10892944	     -8.88866793
      0.04000000	      4.87708674	     -2.29373757	      4.01249792	     -1.37534897	      0.94907177	      0.11871297	     -3.99727713	      4.01188358	    -10.29085274	    -14.61171038	     13.99538393	     -1.69688751	     -1.46640453	     -4.86115305	    -11.09397005	    -19.71952546	     24.88404938	     -2.34115519	    -10.22590526	      4.08263756	     -8.96572824
      0.05000000	      4.86442916	     -2.25240448	      3.96225387	     -1.37367398	      0.94875991	      0.11956993	     -4.02984451	      4.02879619	    -10.18136293	    -14.74630619	     14.22041764	     -1.78578338	     -1.55422950	     -4.87581215	    -11.00387730	    -19.77509491	     25.03621239	     -2.16567185	    -10.23669754	      4.05778525	     -9.04514263
      0.06000000	      4.86556322	     -2.22787675	      3.91642640	     -1.37183585	      0.94844699	      0.12049106	     -4.08865171	      4.06860112	    -10.09340024	    -14.87897065	     14.46796606	     -2.06583425	     -1.65655650	     -4.92850314	    -10.97205284	    -19.84814389	     25.10403251	     -1.68042894	    -10.25589010	      4.05812246	     -9.13470510
      0.07000000	      4.84815365	     -2.20891848	      3.90203762	     -1.36992067	      0.94810659	      0.12145656	     -4.16841882	      4.13591071	     -9.93552105	    -14.94004556	     14.63299167	     -2.12205814	     -1.72315564	     -4.97946697	    -10.79941177	    -19.94238376	     25.24138186	     -1.50690820	    -10.25399020	      4.05041236	     -9.20937034
      0.08000000	      4.85494668	     -2.22591955	      3.90006180	     -1.36794762	      0.94774855	      0.12245331	     -4.26697113	      4.24101580	     -9.83652065	    -15.01956154	     14.83236574	     -2.33987895	     -1.77015831	     -5.09931129	    -10.71575101	    -20.12671518	     25.32634657	     -0.99369032	    -10.28583695	      4.09669271	     -9.30546658
      0.09000000	      4.83840844	     -2.24349938	      3.91343237	     -1.36592840	      0.94736150	      0.12348764	     -4.37137518	      4.36339674	     -9.65401257	    -15.04280221	     15.01132103	     -2.37938518	     -1.78365251	     -5.20166960	    -10.48360252	    -20.31613559	     25.40196515	     -0.85633851	    -10.29342040	      4.13342238	     -9.36848107
      0.10000000	      4.81535545	     -2.31362413	      3.95245403	     -1.36392265	      0.94688824	      0.12456425	     -4.45220920	      4.54482634	     -9.52488989	    -15.08978490	     15.14525004	     -2.57496830	     -1.69611302	     -5.39183488	    -10.30028118	    -20.67101561	     25.50037818	     -0.45417755	    -10.30576781	      4.23115422	     -9.44024084
      0.11000000	      4.82303633	     -2.36979884	      3.98735329	     -1.36186435	      0.94645772	      0.12569167	     -4.58911103	      4.72341826	     -9.33437579	    -15.10390278	     15.33462268	     -2.60194968	     -1.63175945	     -5.55092284	    -10.00298281	    -21.04476402	     25.52221314	     -0.39157917	    -10.36520101	      4.30837041	     -9.47462435
      0.12000000	      4.77890569	     -2.49094904	      4.04867940	     -1.35984364	      0.94586371	      0.12685428	     -4.65896363	      4.97225814	     -9.19822916	    -15.12137720	     15.42463324	     -2.75070197	     -1.38068786	     -5.79929218	     -9.68472471	    -21.64586407	     25.64724504	     -0.26878296	    -10.37601824	      4.45894610	     -9.51352097
      0.13000000	      4.76625812	     -2.61763497	      4.11568259	     -1.35781527	      0.94527971	      0.12805862	     -4.76659989	      5.23578706	     -9.03764529	    -15.13624242	     15.54726624	     -2.83842654	     -1.09832043	     -6.04771900	     -9.26725720	    -22.36429440	     25.70428330	     -0.30129028	    -10.44309833	      4.61442018	     -9.52941002
      0.14000000	      4.74362025	     -2.77239455	      4.19357668	     -1.35582377	      0.94462928	      0.12930785	     -4.85497738	      5.53083374	     -8.89801920	    -15.15739525	     15.64485416	     -2.92007594	     -0.69462337	     -6.32553745	     -8.74981315	    -23.27475129	     25.74283566	     -0.45298117	    -10.51947814	      4.79825493	     -9.52724922
      0.15000000	      4.71243399	     -2.95089032	      4.28301011	     -1.35387219	      0.94391972	      0.13058474	     -4.92970640	      5.85198282	     -8.79214463	    -15.17691604	     15.73332784	     -2.99182754	     -0.15607990	     -6.62225602	     -8.11873281	    -24.40346747	     25.74650155	     -0.72868666	    -10.60992300	      5.00497574	     -9.51080134
      0.16000000	      4.69317454	     -3.14864786	      4.39426793	     -1.35195096	      0.94318402	      0.13186121	     -5.01904201	      6.19610773	     -8.71547279	    -15.18616162	     15.81378111	     -3.04172071	      0.50816314	     -6.93330063	     -7.36683104	    -25.77214273	     25.69336339	     -1.08153008	    -10.73653588	      5.23659071	     -9.49495882
